<svg width="10" height="11" viewBox="0 0 10 11" fill="none" xmlns="http://www.w3.org/2000/svg">
<path d="M0.506475 1.85072C0.273883 1.61813 0.273883 1.24102 0.506475 1.00843C0.739067 0.775836 1.11617 0.775836 1.34877 1.00843L9.4909 9.15058C9.7235 9.38317 9.7235 9.76028 9.4909 9.99287C9.25831 10.2255 8.88121 10.2255 8.64861 9.99287L0.506475 1.85072Z" fill="#747474"/>
<path d="M9.49092 1.85072C9.72351 1.61813 9.72351 1.24102 9.49092 1.00843C9.25833 0.775836 8.88122 0.775836 8.64863 1.00843L0.506492 9.15058C0.2739 9.38317 0.2739 9.76028 0.506492 9.99287C0.739084 10.2255 1.11619 10.2255 1.34878 9.99287L9.49092 1.85072Z" fill="#747474"/>
</svg>
