<svg width="14" height="14" viewBox="0 0 14 14" fill="none" xmlns="http://www.w3.org/2000/svg">
<g clip-path="url(#clip0_11757_281000)">
<path d="M3.47903 1.07114C3.66771 0.920197 3.6983 0.644881 3.54736 0.456204C3.39642 0.267527 3.1211 0.236937 2.93243 0.387878L1.47409 1.55454C1.28541 1.70549 1.25482 1.9808 1.40577 2.16948C1.55671 2.35816 1.83202 2.38875 2.0207 2.23781L3.47903 1.07114Z" fill="#DB020C"/>
<path d="M11.0624 0.387878C10.8737 0.236937 10.5984 0.267527 10.4474 0.456204C10.2965 0.644881 10.3271 0.920197 10.5158 1.07114L11.9741 2.23781C12.1628 2.38875 12.4381 2.35816 12.589 2.16948C12.74 1.9808 12.7094 1.70549 12.5207 1.55454L11.0624 0.387878Z" fill="#DB020C"/>
<path d="M7.4349 4.66701C7.4349 4.42538 7.23902 4.22951 6.9974 4.22951C6.75577 4.22951 6.5599 4.42538 6.5599 4.66701L6.5599 6.70868C6.5599 7.43355 7.14752 8.02117 7.8724 8.02117H8.7474C8.98902 8.02117 9.1849 7.8253 9.1849 7.58367C9.1849 7.34205 8.98902 7.14617 8.7474 7.14617H7.8724C7.63077 7.14617 7.4349 6.9503 7.4349 6.70867L7.4349 4.66701Z" fill="#DB020C"/>
<path fill-rule="evenodd" clip-rule="evenodd" d="M6.9974 0.729508C3.53411 0.729508 0.726562 3.53706 0.726562 7.00034C0.726562 10.4636 3.53411 13.2712 6.9974 13.2712C10.4607 13.2712 13.2682 10.4636 13.2682 7.00034C13.2682 3.53706 10.4607 0.729508 6.9974 0.729508ZM1.60156 7.00034C1.60156 4.0203 4.01736 1.60451 6.9974 1.60451C9.97743 1.60451 12.3932 4.0203 12.3932 7.00034C12.3932 9.98038 9.97743 12.3962 6.9974 12.3962C4.01736 12.3962 1.60156 9.98038 1.60156 7.00034Z" fill="#DB020C"/>
</g>
<defs>
<clipPath id="clip0_11757_281000">
<rect width="14" height="14" fill="white"/>
</clipPath>
</defs>
</svg>
