<svg width="14" height="15" viewBox="0 0 14 15" fill="none" xmlns="http://www.w3.org/2000/svg">
<path d="M0.261666 2.0251C-0.087222 1.67622 -0.087222 1.11056 0.261666 0.761666C0.610554 0.412778 1.17621 0.412778 1.5251 0.761666L13.7383 12.9749C14.0872 13.3238 14.0872 13.8894 13.7383 14.2383C13.3894 14.5872 12.8238 14.5872 12.4749 14.2383L0.261666 2.0251Z" fill="white"/>
<path d="M13.7383 2.0251C14.0872 1.67622 14.0872 1.11056 13.7383 0.761666C13.3894 0.412778 12.8238 0.412778 12.4749 0.761666L0.261691 12.9749C-0.0871968 13.3238 -0.0871968 13.8894 0.261691 14.2383C0.610579 14.5872 1.17624 14.5872 1.52513 14.2383L13.7383 2.0251Z" fill="white"/>
</svg>
