<svg width="12" height="13" viewBox="0 0 12 13" fill="none" xmlns="http://www.w3.org/2000/svg">
<path d="M0.224285 1.80723C-0.0747617 1.50818 -0.0747617 1.02333 0.224285 0.724286C0.523332 0.425238 1.00818 0.425238 1.30723 0.724286L11.7757 11.1928C12.0747 11.4918 12.0747 11.9767 11.7757 12.2757C11.4766 12.5748 10.9918 12.5748 10.6927 12.2757L0.224285 1.80723Z" fill="#747474"/>
<path d="M11.7757 1.80723C12.0748 1.50818 12.0748 1.02333 11.7757 0.724286C11.4767 0.425238 10.9918 0.425238 10.6928 0.724286L0.224307 11.1928C-0.0747401 11.4918 -0.0747401 11.9767 0.224307 12.2757C0.523354 12.5748 1.0082 12.5748 1.30725 12.2757L11.7757 1.80723Z" fill="#747474"/>
</svg>
