<svg width="32" height="32" viewBox="0 0 32 32" fill="none" xmlns="http://www.w3.org/2000/svg">
<path d="M20.333 11.996C20.333 14.3896 18.3926 16.33 15.999 16.33V18.33C19.4972 18.33 22.333 15.4942 22.333 11.996H20.333ZM15.999 16.33C13.6054 16.33 11.665 14.3896 11.665 11.996H9.66506C9.66506 15.4942 12.5009 18.33 15.999 18.33V16.33ZM11.665 11.996C11.665 9.60243 13.6054 7.66202 15.999 7.66202V5.66207C12.5009 5.66207 9.66506 8.49788 9.66506 11.996H11.665ZM15.999 7.66202C18.3926 7.66202 20.333 9.60243 20.333 11.996H22.333C22.333 8.49788 19.4972 5.66207 15.999 5.66207V7.66202ZM11.9985 22.3305H19.9995V20.3305H11.9985V22.3305ZM3.66404 15.9965C3.66404 9.1841 9.1866 3.66154 15.999 3.66154V1.66158C8.08206 1.66158 1.66409 8.07955 1.66409 15.9965H3.66404ZM15.999 3.66154C22.8114 3.66154 28.334 9.1841 28.334 15.9965H30.334C30.334 8.07955 23.916 1.66158 15.999 1.66158V3.66154ZM28.334 15.9965C28.334 19.4947 26.8791 22.6514 24.5387 24.8975L25.9235 26.3404C28.6406 23.7329 30.334 20.0616 30.334 15.9965H28.334ZM24.5387 24.8975C22.3214 27.0253 19.3138 28.3315 15.999 28.3315V30.3315C19.8504 30.3315 23.3487 28.8113 25.9235 26.3404L24.5387 24.8975ZM19.9995 22.3305C22.1012 22.3305 23.8555 23.8275 24.2503 25.8139L26.2119 25.424C25.6347 22.5199 23.0739 20.3305 19.9995 20.3305V22.3305ZM15.999 28.3315C12.6842 28.3315 9.67663 27.0253 7.45937 24.8975L6.07459 26.3404C8.6493 28.8113 12.1477 30.3315 15.999 30.3315V28.3315ZM7.45937 24.8975C5.11894 22.6514 3.66404 19.4947 3.66404 15.9965H1.66409C1.66409 20.0616 3.35746 23.7329 6.07459 26.3404L7.45937 24.8975ZM11.9985 20.3305C8.92416 20.3305 6.36336 22.5199 5.78619 25.424L7.74777 25.8139C8.14255 23.8275 9.89682 22.3305 11.9985 22.3305V20.3305Z" fill="#747474"/>
<path d="M19.9962 21.3264H11.9964C9.40875 21.3264 7.25152 23.1693 6.76562 25.6142C9.16126 27.9133 12.4138 29.3262 15.9963 29.3262C19.5788 29.3262 22.8314 27.9133 25.227 25.6142C24.7411 23.1693 22.5839 21.3264 19.9962 21.3264Z" fill="#747474"/>
<path d="M25.227 25.6142L25.9194 26.3357L26.3146 25.9565L26.2078 25.4193L25.227 25.6142ZM6.76562 25.6142L5.78483 25.4193L5.67807 25.9565L6.07323 26.3357L6.76562 25.6142ZM11.9964 22.3264H19.9962V20.3264H11.9964V22.3264ZM24.5346 24.8927C22.3177 27.0203 19.3106 28.3262 15.9963 28.3262V30.3262C19.8471 30.3262 23.345 28.8063 25.9194 26.3357L24.5346 24.8927ZM19.9962 22.3264C22.0975 22.3264 23.8515 23.8231 24.2462 25.8091L26.2078 25.4193C25.6307 22.5155 23.0702 20.3264 19.9962 20.3264V22.3264ZM15.9963 28.3262C12.6821 28.3262 9.67493 27.0203 7.45802 24.8927L6.07323 26.3357C8.6476 28.8063 12.1455 30.3262 15.9963 30.3262V28.3262ZM11.9964 20.3264C8.92242 20.3264 6.36193 22.5155 5.78483 25.4193L7.74642 25.8091C8.14112 23.8231 9.89508 22.3264 11.9964 22.3264V20.3264Z" fill="#747474"/>
<path d="M21.3326 11.9963C21.3326 14.9423 18.9443 17.3305 15.9983 17.3305C13.0523 17.3305 10.6641 14.9423 10.6641 11.9963C10.6641 9.05027 13.0523 6.66205 15.9983 6.66205C18.9443 6.66205 21.3326 9.05027 21.3326 11.9963Z" fill="#747474"/>
<path d="M20.3326 11.9963C20.3326 14.39 18.3921 16.3306 15.9983 16.3306V18.3305C19.4966 18.3305 22.3325 15.4946 22.3325 11.9963H20.3326ZM15.9983 16.3306C13.6046 16.3306 11.664 14.39 11.664 11.9963H9.66409C9.66409 15.4946 12.5 18.3305 15.9983 18.3305V16.3306ZM11.664 11.9963C11.664 9.60254 13.6046 7.66202 15.9983 7.66202V5.66207C12.5 5.66207 9.66409 8.498 9.66409 11.9963H11.664ZM15.9983 7.66202C18.3921 7.66202 20.3326 9.60254 20.3326 11.9963H22.3325C22.3325 8.498 19.4966 5.66207 15.9983 5.66207V7.66202Z" fill="#747474"/>
</svg>
