<svg width="16" height="17" viewBox="0 0 16 17" fill="none" xmlns="http://www.w3.org/2000/svg">
<g clip-path="url(#clip0_9121_555487)">
<path d="M2.67578 1.16886C2.67701 0.892717 2.45415 0.667863 2.17801 0.666631C1.90187 0.665399 1.67702 0.888256 1.67579 1.1644L1.66975 2.51708C1.66749 3.02032 1.66561 3.44007 1.70246 3.77752C1.74111 4.13148 1.82751 4.4577 2.04682 4.74109C2.10621 4.81782 2.17157 4.88962 2.24227 4.95582C2.2839 4.99481 2.32737 5.03185 2.37256 5.06682C2.65595 5.28613 2.98217 5.37253 3.33612 5.41118C3.67358 5.44804 4.0933 5.44615 4.59654 5.44389L5.94925 5.43786C6.22539 5.43663 6.44824 5.21177 6.44701 4.93563C6.44578 4.65949 6.22093 4.43663 5.94479 4.43787L4.62098 4.44377C4.08136 4.44618 3.71891 4.44704 3.44468 4.41709C3.42406 4.41484 3.40432 4.41245 3.38543 4.40992C3.6611 4.0991 3.96769 3.8163 4.30034 3.56637C5.33104 2.79199 6.61156 2.33329 8.00065 2.33329C11.4064 2.33329 14.1673 5.0942 14.1673 8.49996C14.1673 11.9057 11.4064 14.6666 8.00065 14.6666C4.59489 14.6666 1.83398 11.9057 1.83398 8.49996C1.83398 8.22382 1.61013 7.99996 1.33398 7.99996C1.05784 7.99996 0.833984 8.22382 0.833984 8.49996C0.833984 12.458 4.04261 15.6666 8.00065 15.6666C11.9587 15.6666 15.1673 12.458 15.1673 8.49996C15.1673 4.54192 11.9587 1.33329 8.00065 1.33329C6.38754 1.33329 4.89761 1.86684 3.69966 2.76688C3.33749 3.03898 3.00197 3.3446 2.69768 3.67914L2.69655 3.66896C2.6666 3.39474 2.66746 3.03228 2.66987 2.49267L2.67578 1.16886Z" fill="#747474"/>
<path d="M8.5 5.83337C8.5 5.55723 8.27614 5.33337 8 5.33337C7.72386 5.33337 7.5 5.55723 7.5 5.83337L7.5 7.65034C7.49999 8.00622 7.49998 8.30891 7.52474 8.56012C7.55112 8.82773 7.60833 9.07577 7.74563 9.31357C7.88292 9.55137 8.06913 9.72493 8.2877 9.88158C8.49287 10.0286 8.75502 10.18 9.06324 10.3579L9.4821 10.5997C9.72125 10.7378 10.027 10.6558 10.1651 10.4167C10.3032 10.1776 10.2212 9.87176 9.98209 9.73369L9.58335 9.50349C9.24957 9.31078 9.03063 9.18373 8.87023 9.06878C8.71878 8.96023 8.65299 8.88517 8.61165 8.81357C8.57031 8.74197 8.5382 8.64746 8.51992 8.46202C8.50056 8.26564 8.5 8.01251 8.5 7.62709L8.5 5.83337Z" fill="#747474"/>
</g>
<defs>
<clipPath id="clip0_9121_555487">
<rect width="16" height="16" fill="white" transform="translate(0 0.5)"/>
</clipPath>
</defs>
</svg>
