<svg width="50" height="14" viewBox="0 0 50 14" fill="none" xmlns="http://www.w3.org/2000/svg">
<g clip-path="url(#clip0_11411_62551)">
<path d="M35.5811 6.64844V14.0002H40.0611V9.86485H44.5698C46.9246 9.86485 48.9349 8.52946 49.7103 6.64844H35.5811Z" fill="#006848"/>
<path d="M35.3809 0C35.3952 0.373333 35.4527 0.746667 35.5388 1.09128C35.5532 1.16308 35.5819 1.24923 35.5962 1.32103C35.6106 1.34974 35.6106 1.37846 35.625 1.42154C36.4291 3.96308 38.7983 5.80103 41.5983 5.80103H49.8691C49.9265 5.51385 49.9552 5.22667 49.9552 4.92513C49.9552 3.48923 49.3378 2.19692 48.347 1.29231C47.4711 0.488205 46.308 0 45.0157 0L35.3809 0Z" fill="url(#paint0_linear_11411_62551)"/>
<path d="M27.641 1.47897L24.5108 8.27077H24.1949V0H19.7436V14H23.52C24.5108 14 25.4154 13.4256 25.8318 12.521L28.962 5.72923H29.2779V14H33.7292V0H29.9528C28.962 0 28.0574 0.574359 27.641 1.47897ZM6.89231 1.83795L8.75897 8.27077H9.07487L10.9272 1.83795C11.2431 0.746667 12.2338 0 13.3682 0H17.8195V14H13.3682V5.72923H13.0523L10.4964 14H7.32308L4.76718 5.72923H4.45128V14H0V0H4.45128C5.58564 0 6.57641 0.746667 6.89231 1.83795Z" fill="#006848"/>
</g>
<defs>
<linearGradient id="paint0_linear_11411_62551" x1="35.3784" y1="2.90224" x2="49.9508" y2="2.90224" gradientUnits="userSpaceOnUse">
<stop stop-color="#02AFFF"/>
<stop offset="1" stop-color="#1F5BDE"/>
</linearGradient>
<clipPath id="clip0_11411_62551">
<rect width="49.9549" height="14" fill="white"/>
</clipPath>
</defs>
</svg>
