<svg width="33" height="20" viewBox="0 0 33 20" fill="none" xmlns="http://www.w3.org/2000/svg">
<g clip-path="url(#clip0_11411_62561)">
<path d="M32.1857 0H0.310745V20H32.1857V0Z" fill="white"/>
<path d="M31.347 16.667H1.14949V19.167H31.347V16.667Z" fill="#F7B600"/>
<path d="M31.347 0.833008H1.14949V3.33301H31.347V0.833008ZM13.1751 6.25926L9.99386 13.7599H7.91574L6.34949 7.77488C6.25449 7.40613 6.17136 7.27113 5.88262 7.11551C5.26569 6.82465 4.61542 6.61055 3.94637 6.47801L3.99199 6.25988H7.32887C7.54761 6.25988 7.75886 6.33613 7.92574 6.47676C8.09199 6.61676 8.20199 6.81113 8.23636 7.02488L9.06324 11.3655L11.1064 6.25988L13.1751 6.25926ZM21.3107 11.3118C21.3195 9.32613 18.5414 9.22301 18.5601 8.33363C18.5601 8.06488 18.8239 7.77926 19.3926 7.70676C20.0565 7.64338 20.7253 7.75884 21.3295 8.04113L21.6739 6.44988C21.0855 6.23273 20.4635 6.12061 19.8364 6.11863C17.8951 6.11863 16.5339 7.13801 16.517 8.59863C16.5051 9.67801 17.4932 10.2793 18.2395 10.6393C18.9864 10.9999 19.262 11.2436 19.2582 11.5711C19.2582 12.0743 18.6476 12.2974 18.0832 12.3055C17.384 12.3196 16.6926 12.1566 16.0732 11.8318L15.717 13.4755C16.1764 13.6843 17.0232 13.8643 17.9007 13.8743C19.9657 13.8743 21.3151 12.8674 21.3207 11.3074L21.3107 11.3118ZM26.4495 13.7568H28.2657L26.6864 6.25613H24.9876C24.8088 6.25427 24.6334 6.30561 24.4839 6.40363C24.3349 6.50125 24.2188 6.64152 24.1507 6.80613L21.2032 13.7549H23.2657L23.6757 12.6349H26.1951L26.4495 13.7568ZM24.257 11.0986L25.2907 8.28238L25.8851 11.0986H24.257ZM15.992 6.25613L14.3639 13.7605H12.3939L14.0176 6.26051L15.992 6.25613Z" fill="#1A1F71"/>
</g>
<defs>
<clipPath id="clip0_11411_62561">
<rect width="31.875" height="20" fill="white" transform="translate(0.310745)"/>
</clipPath>
</defs>
</svg>
