<svg width="34" height="20" viewBox="0 0 34 20" fill="none" xmlns="http://www.w3.org/2000/svg">
<path d="M12.7576 2.13818H21.5066V17.8614H12.7576V2.13818Z" fill="#FF5F00"/>
<path d="M13.3131 10.0012C13.3115 8.48674 13.6545 6.99175 14.3161 5.62946C14.9778 4.26717 15.9407 3.07329 17.1321 2.13823C15.657 0.978984 13.8855 0.258116 12.0202 0.0580172C10.1548 -0.142081 8.27072 0.186662 6.58333 1.00668C4.89595 1.82669 3.4733 3.10489 2.47799 4.69519C1.48268 6.28549 0.954865 8.12373 0.954865 9.99982C0.954865 11.8759 1.48268 13.7141 2.47799 15.3044C3.4733 16.8947 4.89595 18.173 6.58333 18.993C8.27072 19.813 10.1548 20.1417 12.0202 19.9416C13.8855 19.7415 15.657 19.0207 17.1321 17.8614C15.9411 16.9266 14.9784 15.7332 14.3167 14.3714C13.6551 13.0097 13.3119 11.5152 13.3131 10.0012Z" fill="#DB020C"/>
<path d="M33.3108 10.0014C33.3107 11.8776 32.7828 13.716 31.7873 15.3063C30.7918 16.8967 29.3689 18.1749 27.6813 18.9948C25.9937 19.8147 24.1095 20.1432 22.244 19.9428C20.3785 19.7424 18.607 19.0212 17.1321 17.8616C18.3226 16.926 19.285 15.7322 19.9469 14.3704C20.6087 13.0085 20.9526 11.5141 20.9526 10C20.9526 8.48585 20.6087 6.99148 19.9469 5.62963C19.285 4.26778 18.3226 3.07402 17.1321 2.13841C18.607 0.978802 20.3785 0.257583 22.244 0.0571966C24.1095 -0.143189 25.9937 0.185343 27.6813 1.00524C29.3689 1.82514 30.7918 3.10332 31.7873 4.69367C32.7828 6.28403 33.3107 8.12239 33.3108 9.99861V10.0014ZM32.3553 16.1951V15.8729H32.4858V15.8063H32.1553V15.8729H32.297V16.1951H32.3553ZM32.9969 16.1951V15.8063H32.8969L32.7803 16.084L32.6636 15.8063H32.5747V16.1951H32.6469V15.9035L32.7553 16.1562H32.8303L32.9386 15.9035V16.1979L32.9969 16.1951Z" fill="#F79E1B"/>
</svg>
