<svg width="16" height="17" viewBox="0 0 16 17" fill="none" xmlns="http://www.w3.org/2000/svg">
<g clip-path="url(#clip0_9121_408123)">
<path d="M4.83594 5.34509C4.83594 5.06895 5.05979 4.84509 5.33594 4.84509L8.0026 4.84509C8.27875 4.84509 8.5026 5.06895 8.5026 5.34509C8.5026 5.62124 8.27875 5.84509 8.0026 5.84509L5.33594 5.84509C5.05979 5.84509 4.83594 5.62124 4.83594 5.34509Z" fill="#747474"/>
<path d="M4.83594 8.01176C4.83594 7.73562 5.05979 7.51176 5.33594 7.51176H10.6693C10.9454 7.51176 11.1693 7.73562 11.1693 8.01176C11.1693 8.2879 10.9454 8.51176 10.6693 8.51176H5.33594C5.05979 8.51176 4.83594 8.2879 4.83594 8.01176Z" fill="#747474"/>
<path fill-rule="evenodd" clip-rule="evenodd" d="M6.6469 0.845093H9.35831C10.2728 0.84509 10.9897 0.845087 11.566 0.892167C12.1527 0.940108 12.6375 1.03935 13.0762 1.2629C13.7975 1.63042 14.3839 2.21684 14.7515 2.93813C14.975 3.37688 15.0743 3.86162 15.1222 4.44838C15.1693 5.02461 15.1693 5.74157 15.1693 6.65604V7.46791C15.1693 7.50095 15.1693 7.53359 15.1693 7.56584C15.1694 8.59826 15.1695 9.228 15.0144 9.75701C14.6471 11.0098 13.6673 11.9895 12.4145 12.3569C11.8855 12.512 11.2558 12.5119 10.2233 12.5118C10.1911 12.5118 10.1585 12.5118 10.1254 12.5118H9.75954L9.71935 12.5118C9.14121 12.5155 8.57804 12.696 8.10544 13.029L8.0727 13.0523L6.33221 14.2955C5.32921 15.012 4.01119 13.9773 4.46897 12.8329C4.53049 12.6791 4.41721 12.5118 4.25155 12.5118H3.85037C2.18555 12.5118 0.835938 11.1621 0.835938 9.49732L0.835938 6.65605C0.835934 5.74157 0.835932 5.02462 0.883012 4.44838C0.930952 3.86162 1.03019 3.37688 1.25375 2.93813C1.62126 2.21684 2.20769 1.63042 2.92897 1.2629C3.36773 1.03935 3.85247 0.940108 4.43923 0.892167C5.01546 0.845087 5.73242 0.84509 6.6469 0.845093ZM4.52066 1.88885C3.99574 1.93173 3.65725 2.01415 3.38296 2.15391C2.84984 2.42555 2.41639 2.85899 2.14475 3.39212C2.005 3.66641 1.92258 4.0049 1.87969 4.52982C1.83633 5.06057 1.83594 5.73675 1.83594 6.67843V9.49732C1.83594 10.6099 2.73783 11.5118 3.85037 11.5118H4.25155C5.12468 11.5118 5.72171 12.3936 5.39744 13.2043C5.31059 13.4214 5.56066 13.6177 5.75097 13.4818L7.49146 12.2386L7.52942 12.2116C8.16883 11.761 8.93076 11.5168 9.71294 11.5118L9.75954 11.5118H10.1254C11.2867 11.5118 11.7601 11.5067 12.1332 11.3973C13.0591 11.1258 13.7833 10.4016 14.0548 9.47564C14.1642 9.10262 14.1693 8.62918 14.1693 7.46791V6.67843C14.1693 5.73675 14.1689 5.06057 14.1255 4.52982C14.0826 4.0049 14.0002 3.66641 13.8605 3.39212C13.5888 2.85899 13.1554 2.42555 12.6222 2.15391C12.348 2.01415 12.0095 1.93173 11.4845 1.88885C10.9538 1.84548 10.2776 1.84509 9.33594 1.84509H6.66927C5.7276 1.84509 5.05142 1.84548 4.52066 1.88885Z" fill="#747474"/>
</g>
<defs>
<clipPath id="clip0_9121_408123">
<rect width="16" height="16" fill="white" transform="translate(0 0.0117188)"/>
</clipPath>
</defs>
</svg>
